PathFileType	4	(X/Y/Z)	/Users/itak/Documents/Research/Walk-IL/dataset/trc/00500_00183.trc
DataRate	CameraRate	NumFrames	NumMarkers	Units	OrigDataRate	OrigDataStartFrame	OrigNumFrames
100.000000	100.000000	4	53	mm	100.000000	628	718
Frame#	Time	RPSI			LPSI			L3			STRN			T10			C7			CLAV			RBAK			LBAK			LSHO			LUPA			LAEL			LAOL			LWTS			LWPS			LFRA			LIFD			LHPS			LHTS			RSHO			RUPA			RAEL			RAOL			RWTS			RWPS			RFRA			RIFD			RHTS			RHPS			RBHD			LFHD			RFHD			LBHD			LHIP			RHIP			RASI			LASI			LKNE			LTHI			LANK			LTIP			LTOE			LMT1			LMT5			LHEE			RKNE			RTHI			RANK			RTIP			RTOE			RMT1			RMT5			RHEE			
		X1	Y1	Z1	X2	Y2	Z2	X3	Y3	Z3	X4	Y4	Z4	X5	Y5	Z5	X6	Y6	Z6	X7	Y7	Z7	X8	Y8	Z8	X9	Y9	Z9	X10	Y10	Z10	X11	Y11	Z11	X12	Y12	Z12	X13	Y13	Z13	X14	Y14	Z14	X15	Y15	Z15	X16	Y16	Z16	X17	Y17	Z17	X18	Y18	Z18	X19	Y19	Z19	X20	Y20	Z20	X21	Y21	Z21	X22	Y22	Z22	X23	Y23	Z23	X24	Y24	Z24	X25	Y25	Z25	X26	Y26	Z26	X27	Y27	Z27	X28	Y28	Z28	X29	Y29	Z29	X30	Y30	Z30	X31	Y31	Z31	X32	Y32	Z32	X33	Y33	Z33	X34	Y34	Z34	X35	Y35	Z35	X36	Y36	Z36	X37	Y37	Z37	X38	Y38	Z38	X39	Y39	Z39	X40	Y40	Z40	X41	Y41	Z41	X42	Y42	Z42	X43	Y43	Z43	X44	Y44	Z44	X45	Y45	Z45	X46	Y46	Z46	X47	Y47	Z47	X48	Y48	Z48	X49	Y49	Z49	X50	Y50	Z50	X51	Y51	Z51	X52	Y52	Z52	X53	Y53	Z53	

629	6.28	576.8568725585938	964.3104248046875	343.5542907714844	643.82080078125	961.3546752929688	239.6900787353516	599.7339477539062	1023.197387695312	280.6002807617188	790.3927001953125	1195.940795898438	374.8049621582031	581.1978149414062	1128.620849609375	272.9040222167969	614.5077514648438	1360.5634765625	287.3790283203125	755.6677856445312	1289.346069335938	355.3451232910156	536.8383178710938	1238.74072265625	348.1110229492188	631.45703125	1304.711791992188	199.6905975341797	748.5113525390625	1352.073608398438	173.0174407958984	765.1023559570312	1224.6181640625	115.3527908325195	775.6275634765625	1014.752075195312	97.49982452392578	683.391845703125	1008.432983398438	131.9346160888672	832.46875	820.220703125	160.493896484375	763.6470947265625	788.3529052734375	105.2663803100586	786.0284423828125	929.372802734375	102.2929458618164	819.6013793945312	664.1324462890625	179.0384826660156	780.3651123046875	731.5321044921875	118.9481964111328	839.626220703125	740.8273315429688	147.3116455078125	600.572509765625	1359.04443359375	445.75146484375	563.7686157226562	1291.921020507812	493.6180114746094	567.9403686523438	1025.274047851562	548.390625	532.5231323242188	1005.062377929688	495.4560241699219	688.3851928710938	830.7737426757812	555.805419921875	604.95166015625	804.7859497070312	579.6873168945312	574.2445068359375	971.2503662109375	558.6658325195312	702.8648681640625	673.0438232421875	564.5205688476562	702.7191162109375	739.8651733398438	587.946533203125	632.4541625976562	732.6838989257812	590.525390625	606.0552978515625	1516.455200195312	368.8432312011719	789.988037109375	1581.863525390625	324.0805358886719	717.05517578125	1574.838745117188	427.9508972167969	686.6062622070312	1520.895874023438	230.2182312011719	803.2161254882812	884.3306274414062	184.7024230957031	603.8263549804688	866.58154296875	506.6578979492188	721.6119384765625	911.9474487304688	501.6237487792969	845.7291870117188	918.0528564453125	292.8872680664062	758.47607421875	463.6947021484375	211.1035003662109	797.0968017578125	619.4911499023438	207.7750701904297	652.4738159179688	44.46443557739258	183.5679016113281	721.416259765625	317.9788818359375	189.83544921875	801.5939331054688	31.38068580627441	329.548095703125	717.4175415039062	39.8001594543457	320.9997863769531	752.8516845703125	35.74818801879883	225.0375061035156	584.2269897460938	44.4440803527832	219.8392486572266	620.6411743164062	479.4573364257812	494.8096008300781	621.3282470703125	740.3016357421875	527.2305908203125	555.2018432617188	45.36433792114258	449.1064147949219	625.2431640625	334.5015869140625	481.7032470703125	757.0372314453125	34.09527587890625	492.8128356933594	710.2492065429688	40.2149543762207	431.2298889160156	652.4514770507812	39.9116096496582	508.6347961425781	526.2901000976562	36.17573165893555	384.4914245605469	
630	6.29	577.2442626953125	964.2378540039062	345.0173950195312	644.3860473632812	961.2483520507812	241.0164184570312	600.0499877929688	1023.088989257812	282.0010681152344	790.67041015625	1195.910766601562	375.9986267089844	581.504150390625	1128.434936523438	274.3237915039062	614.6515502929688	1360.416381835938	288.7176208496094	755.892578125	1289.27490234375	356.54248046875	537.1090698242188	1238.57958984375	349.4721374511719	631.580078125	1304.544799804688	201.0051574707031	748.5270385742188	1351.987182617188	174.170166015625	764.97509765625	1224.498413085938	116.5492782592773	775.5173950195312	1014.683654785156	98.75675201416016	683.4468994140625	1008.274475097656	133.5356597900391	833.0520629882812	820.5709228515625	162.1179351806641	764.3533935546875	788.1663208007812	106.9055480957031	786.1759033203125	929.3861083984375	103.5898361206055	821.5364990234375	664.4732666015625	180.4300842285156	781.4628295898438	731.3795166015625	120.7071075439453	840.85546875	741.3243408203125	148.7760467529297	600.802490234375	1358.915283203125	447.0748596191406	564.08349609375	1291.747802734375	494.966552734375	568.6151123046875	1025.08349609375	549.7357788085938	533.1309814453125	1004.859436035156	496.8354187011719	689.4185791015625	830.8198852539062	557.1528930664062	606.0435791015625	804.674560546875	580.9502563476562	574.9797973632812	971.0836181640625	560.0120849609375	704.275146484375	673.1610717773438	566.0185546875	703.9139404296875	739.9990844726562	589.3829956054688	633.65478515625	732.6305541992188	591.8895263671875	606.2528076171875	1516.486572265625	369.95068359375	790.2271728515625	1581.731811523438	325.0279846191406	717.3519287109375	1574.87646484375	428.9354248046875	686.7368774414062	1520.725830078125	231.3073425292969	803.5838012695312	884.2996215820312	186.0600280761719	604.1182861328125	866.6300659179688	507.9698181152344	722.1052856445312	911.855712890625	503.0132446289062	846.1461181640625	918.0187377929688	294.215087890625	758.7670288085938	463.7193908691406	212.0904693603516	797.4141845703125	619.4091186523438	208.9214324951172	652.4241333007812	44.55182266235352	183.6434783935547	721.5771484375	318.0684509277344	190.533447265625	801.6089477539062	31.36528587341309	329.5755310058594	717.435302734375	39.78608322143555	321.0422058105469	752.8580932617188	35.79496765136719	225.0898590087891	584.2383422851562	44.50355529785156	219.9106903076172	621.02099609375	479.3133544921875	495.5859985351562	622.0249633789062	740.0985717773438	528.3994750976562	555.2369995117188	45.29701614379883	449.1520080566406	625.4638061523438	334.3453674316406	482.1865844726562	757.04541015625	34.08049774169922	492.8030700683594	710.2584228515625	40.19439697265625	431.2195434570312	652.462646484375	39.89857864379883	508.6210632324219	526.284423828125	36.18081283569336	384.4907531738281	
631	6.3	577.6329345703125	964.1492919921875	346.4436645507812	644.9141845703125	961.1444702148438	242.3343200683594	600.3341674804688	1022.968078613281	283.3962097167969	790.9290771484375	1195.876953125	377.1660766601562	581.76953125	1128.234252929688	275.7144165039062	614.7437133789062	1360.261474609375	290.0463256835938	756.0877075195312	1289.201293945312	357.7157592773438	537.3560180664062	1238.394897460938	350.8268432617188	631.666015625	1304.368286132812	202.2973937988281	748.4974365234375	1351.900024414062	175.3047180175781	764.843505859375	1224.406005859375	117.6974792480469	775.6480712890625	1014.604248046875	100.0908660888672	683.6179809570312	1008.119384765625	134.8921203613281	833.6975708007812	820.9856567382812	163.9848327636719	765.575439453125	788.0598754882812	108.288688659668	786.6083984375	929.4302978515625	104.9516372680664	823.570556640625	664.886962890625	181.9646453857422	782.9988403320312	731.3746948242188	122.3494110107422	842.2901000976562	741.8953857421875	150.4935455322266	601.0106201171875	1358.773803710938	448.3849792480469	564.377197265625	1291.5478515625	496.3025512695312	569.316162109375	1024.880859375	551.0673828125	533.6968383789062	1004.646789550781	498.2368469238281	690.3934936523438	830.7920532226562	558.3505249023438	607.0943603515625	804.5311889648438	582.1731567382812	575.73828125	970.8970336914062	561.3401489257812	705.5393676757812	673.1917724609375	567.311767578125	705.0486450195312	740.048828125	590.6277465820312	634.806396484375	732.5341796875	593.1575927734375	606.4493408203125	1516.530883789062	371.0527038574219	790.4637451171875	1581.587280273438	325.9560546875	717.6546020507812	1574.897827148438	429.9083862304688	686.849853515625	1520.572509765625	232.3868713378906	803.950927734375	884.2787475585938	187.4102325439453	604.3902587890625	866.6700439453125	509.2795104980469	722.5814819335938	911.7557983398438	504.4007263183594	846.54150390625	917.9774169921875	295.5448608398438	759.0663452148438	463.7449951171875	213.0726623535156	797.7686767578125	619.332275390625	210.0733795166016	652.3719482421875	44.62473678588867	183.7248992919922	721.711669921875	318.142333984375	191.2069854736328	801.6231689453125	31.34884643554688	329.6015319824219	717.4540405273438	39.76737976074219	321.0876770019531	752.8670654296875	35.84638214111328	225.1510620117188	584.2481079101562	44.56414413452148	219.9777221679688	621.375	479.159912109375	496.3584899902344	622.6463623046875	739.8914184570312	529.57666015625	555.259033203125	45.25598907470703	449.17431640625	625.6826782226562	334.1831665039062	482.6672668457031	757.0520629882812	34.06517028808594	492.7939453125	710.2687377929688	40.1739616394043	431.2081298828125	652.4754638671875	39.88608169555664	508.6063232421875	526.2808227539062	36.18208312988281	384.4847717285156	
632	6.31	578.02978515625	964.0427856445312	347.8326416015625	645.3964233398438	961.0361328125	243.6472930908203	600.5982055664062	1022.818237304688	284.7786560058594	791.1702880859375	1195.835815429688	378.3084411621094	581.994873046875	1128.021118164062	277.076416015625	614.7906494140625	1360.096923828125	291.3627624511719	756.25634765625	1289.12353515625	358.8663635253906	537.5752563476562	1238.187744140625	352.1795349121094	631.7124633789062	1304.1796875	203.5713043212891	748.4296264648438	1351.807006835938	176.4247589111328	764.7239990234375	1224.333618164062	118.8035278320312	776.0195922851562	1014.512817382812	101.4851379394531	683.906005859375	1007.957580566406	136.0084686279297	834.3961791992188	821.4384155273438	166.0393371582031	767.2660522460938	788.0324096679688	109.4148864746094	787.3107299804688	929.4949951171875	106.3630599975586	825.6001586914062	665.3474731445312	183.6348571777344	784.9354248046875	731.5117797851562	123.8326034545898	843.8748779296875	742.50634765625	152.4365692138672	601.2056274414062	1358.620727539062	449.6820678710938	564.6575927734375	1291.323486328125	497.6280517578125	570.0331420898438	1024.667358398438	552.3894653320312	534.227294921875	1004.421691894531	499.6590881347656	691.305908203125	830.6929931640625	559.4076538085938	608.1006469726562	804.3525390625	583.3551025390625	576.5155639648438	970.6906127929688	562.65283203125	706.6695556640625	673.1395874023438	568.3949584960938	706.124267578125	740.0131225585938	591.6837768554688	635.9089965820312	732.391357421875	594.3230590820312	606.6426391601562	1516.583618164062	372.1491088867188	790.6893310546875	1581.428588867188	326.8704223632812	717.9564208984375	1574.90185546875	430.8702087402344	686.945068359375	1520.43017578125	233.4545593261719	804.3189086914062	884.2607421875	188.7510986328125	604.648193359375	866.7062377929688	510.583984375	723.045654296875	911.6510620117188	505.7831115722656	846.9190063476562	917.927978515625	296.8727416992188	759.3688354492188	463.7711486816406	214.0404663085938	798.1845092773438	619.2710571289062	211.2422790527344	652.32275390625	44.68408203125	183.8082427978516	721.82177734375	318.2001647949219	191.8494262695312	801.6359252929688	31.33015251159668	329.6268005371094	717.4677734375	39.74059295654297	321.1356201171875	752.8754272460938	35.89959335327148	225.2179565429688	584.25439453125	44.62464904785156	220.0420989990234	621.703369140625	478.9952697753906	497.1339721679688	623.1486206054688	739.6876220703125	530.7882690429688	555.2679443359375	45.23466491699219	449.179931640625	625.89697265625	334.0151977539062	483.1477966308594	757.057373046875	34.0495491027832	492.7859802246094	710.2789916992188	40.15525817871094	431.1973571777344	652.4889526367188	39.873779296875	508.5924987792969	526.2791137695312	36.17877960205078	384.4762573242188	
